<?xml version="1.0" encoding="utf-8" standalone="no"?>
<!DOCTYPE svg PUBLIC "-//W3C//DTD SVG 1.1//EN"
  "http://www.w3.org/Graphics/SVG/1.1/DTD/svg11.dtd">
<!-- Created with matplotlib (https://matplotlib.org/) -->
<svg height="325.986375pt" version="1.1" viewBox="0 0 499.745 325.986375" width="499.745pt" xmlns="http://www.w3.org/2000/svg" xmlns:xlink="http://www.w3.org/1999/xlink">
 <defs>
  <style type="text/css">
*{stroke-linecap:butt;stroke-linejoin:round;}
  </style>
 </defs>
 <g id="figure_1">
  <g id="patch_1">
   <path d="M 0 325.986375 
L 499.745 325.986375 
L 499.745 0 
L 0 0 
z
" style="fill:#ffffff;"/>
  </g>
  <g id="axes_1">
   <g id="patch_2">
    <path d="M 43.78125 288.430125 
L 400.90125 288.430125 
L 400.90125 22.318125 
L 43.78125 22.318125 
z
" style="fill:#ffffff;"/>
   </g>
   <g id="matplotlib.axis_1">
    <g id="xtick_1">
     <g id="line2d_1">
      <path clip-path="url(#pd513abbd5a)" d="M 52.284107 288.430125 
L 52.284107 22.318125 
" style="fill:none;stroke:#b0b0b0;stroke-dasharray:0.8,1.32;stroke-dashoffset:0;stroke-width:0.8;"/>
     </g>
     <g id="line2d_2">
      <defs>
       <path d="M 0 0 
L 0 3.5 
" id="m054e5c5cb2" style="stroke:#000000;stroke-width:0.8;"/>
      </defs>
      <g>
       <use style="stroke:#000000;stroke-width:0.8;" x="52.284107" xlink:href="#m054e5c5cb2" y="288.430125"/>
      </g>
     </g>
     <g id="text_1">
      <!-- 0.0 -->
      <defs>
       <path d="M 31.78125 66.40625 
Q 24.171875 66.40625 20.328125 58.90625 
Q 16.5 51.421875 16.5 36.375 
Q 16.5 21.390625 20.328125 13.890625 
Q 24.171875 6.390625 31.78125 6.390625 
Q 39.453125 6.390625 43.28125 13.890625 
Q 47.125 21.390625 47.125 36.375 
Q 47.125 51.421875 43.28125 58.90625 
Q 39.453125 66.40625 31.78125 66.40625 
z
M 31.78125 74.21875 
Q 44.046875 74.21875 50.515625 64.515625 
Q 56.984375 54.828125 56.984375 36.375 
Q 56.984375 17.96875 50.515625 8.265625 
Q 44.046875 -1.421875 31.78125 -1.421875 
Q 19.53125 -1.421875 13.0625 8.265625 
Q 6.59375 17.96875 6.59375 36.375 
Q 6.59375 54.828125 13.0625 64.515625 
Q 19.53125 74.21875 31.78125 74.21875 
z
" id="DejaVuSans-48"/>
       <path d="M 10.6875 12.40625 
L 21 12.40625 
L 21 0 
L 10.6875 0 
z
" id="DejaVuSans-46"/>
      </defs>
      <g transform="translate(44.332545 303.028562)scale(0.1 -0.1)">
       <use xlink:href="#DejaVuSans-48"/>
       <use x="63.623047" xlink:href="#DejaVuSans-46"/>
       <use x="95.410156" xlink:href="#DejaVuSans-48"/>
      </g>
     </g>
    </g>
    <g id="xtick_2">
     <g id="line2d_3">
      <path clip-path="url(#pd513abbd5a)" d="M 118.76099 288.430125 
L 118.76099 22.318125 
" style="fill:none;stroke:#b0b0b0;stroke-dasharray:0.8,1.32;stroke-dashoffset:0;stroke-width:0.8;"/>
     </g>
     <g id="line2d_4">
      <g>
       <use style="stroke:#000000;stroke-width:0.8;" x="118.76099" xlink:href="#m054e5c5cb2" y="288.430125"/>
      </g>
     </g>
     <g id="text_2">
      <!-- 0.2 -->
      <defs>
       <path d="M 19.1875 8.296875 
L 53.609375 8.296875 
L 53.609375 0 
L 7.328125 0 
L 7.328125 8.296875 
Q 12.9375 14.109375 22.625 23.890625 
Q 32.328125 33.6875 34.8125 36.53125 
Q 39.546875 41.84375 41.421875 45.53125 
Q 43.3125 49.21875 43.3125 52.78125 
Q 43.3125 58.59375 39.234375 62.25 
Q 35.15625 65.921875 28.609375 65.921875 
Q 23.96875 65.921875 18.8125 64.3125 
Q 13.671875 62.703125 7.8125 59.421875 
L 7.8125 69.390625 
Q 13.765625 71.78125 18.9375 73 
Q 24.125 74.21875 28.421875 74.21875 
Q 39.75 74.21875 46.484375 68.546875 
Q 53.21875 62.890625 53.21875 53.421875 
Q 53.21875 48.921875 51.53125 44.890625 
Q 49.859375 40.875 45.40625 35.40625 
Q 44.1875 33.984375 37.640625 27.21875 
Q 31.109375 20.453125 19.1875 8.296875 
z
" id="DejaVuSans-50"/>
      </defs>
      <g transform="translate(110.809428 303.028562)scale(0.1 -0.1)">
       <use xlink:href="#DejaVuSans-48"/>
       <use x="63.623047" xlink:href="#DejaVuSans-46"/>
       <use x="95.410156" xlink:href="#DejaVuSans-50"/>
      </g>
     </g>
    </g>
    <g id="xtick_3">
     <g id="line2d_5">
      <path clip-path="url(#pd513abbd5a)" d="M 185.237873 288.430125 
L 185.237873 22.318125 
" style="fill:none;stroke:#b0b0b0;stroke-dasharray:0.8,1.32;stroke-dashoffset:0;stroke-width:0.8;"/>
     </g>
     <g id="line2d_6">
      <g>
       <use style="stroke:#000000;stroke-width:0.8;" x="185.237873" xlink:href="#m054e5c5cb2" y="288.430125"/>
      </g>
     </g>
     <g id="text_3">
      <!-- 0.4 -->
      <defs>
       <path d="M 37.796875 64.3125 
L 12.890625 25.390625 
L 37.796875 25.390625 
z
M 35.203125 72.90625 
L 47.609375 72.90625 
L 47.609375 25.390625 
L 58.015625 25.390625 
L 58.015625 17.1875 
L 47.609375 17.1875 
L 47.609375 0 
L 37.796875 0 
L 37.796875 17.1875 
L 4.890625 17.1875 
L 4.890625 26.703125 
z
" id="DejaVuSans-52"/>
      </defs>
      <g transform="translate(177.286311 303.028562)scale(0.1 -0.1)">
       <use xlink:href="#DejaVuSans-48"/>
       <use x="63.623047" xlink:href="#DejaVuSans-46"/>
       <use x="95.410156" xlink:href="#DejaVuSans-52"/>
      </g>
     </g>
    </g>
    <g id="xtick_4">
     <g id="line2d_7">
      <path clip-path="url(#pd513abbd5a)" d="M 251.714756 288.430125 
L 251.714756 22.318125 
" style="fill:none;stroke:#b0b0b0;stroke-dasharray:0.8,1.32;stroke-dashoffset:0;stroke-width:0.8;"/>
     </g>
     <g id="line2d_8">
      <g>
       <use style="stroke:#000000;stroke-width:0.8;" x="251.714756" xlink:href="#m054e5c5cb2" y="288.430125"/>
      </g>
     </g>
     <g id="text_4">
      <!-- 0.6 -->
      <defs>
       <path d="M 33.015625 40.375 
Q 26.375 40.375 22.484375 35.828125 
Q 18.609375 31.296875 18.609375 23.390625 
Q 18.609375 15.53125 22.484375 10.953125 
Q 26.375 6.390625 33.015625 6.390625 
Q 39.65625 6.390625 43.53125 10.953125 
Q 47.40625 15.53125 47.40625 23.390625 
Q 47.40625 31.296875 43.53125 35.828125 
Q 39.65625 40.375 33.015625 40.375 
z
M 52.59375 71.296875 
L 52.59375 62.3125 
Q 48.875 64.0625 45.09375 64.984375 
Q 41.3125 65.921875 37.59375 65.921875 
Q 27.828125 65.921875 22.671875 59.328125 
Q 17.53125 52.734375 16.796875 39.40625 
Q 19.671875 43.65625 24.015625 45.921875 
Q 28.375 48.1875 33.59375 48.1875 
Q 44.578125 48.1875 50.953125 41.515625 
Q 57.328125 34.859375 57.328125 23.390625 
Q 57.328125 12.15625 50.6875 5.359375 
Q 44.046875 -1.421875 33.015625 -1.421875 
Q 20.359375 -1.421875 13.671875 8.265625 
Q 6.984375 17.96875 6.984375 36.375 
Q 6.984375 53.65625 15.1875 63.9375 
Q 23.390625 74.21875 37.203125 74.21875 
Q 40.921875 74.21875 44.703125 73.484375 
Q 48.484375 72.75 52.59375 71.296875 
z
" id="DejaVuSans-54"/>
      </defs>
      <g transform="translate(243.763194 303.028562)scale(0.1 -0.1)">
       <use xlink:href="#DejaVuSans-48"/>
       <use x="63.623047" xlink:href="#DejaVuSans-46"/>
       <use x="95.410156" xlink:href="#DejaVuSans-54"/>
      </g>
     </g>
    </g>
    <g id="xtick_5">
     <g id="line2d_9">
      <path clip-path="url(#pd513abbd5a)" d="M 318.19164 288.430125 
L 318.19164 22.318125 
" style="fill:none;stroke:#b0b0b0;stroke-dasharray:0.8,1.32;stroke-dashoffset:0;stroke-width:0.8;"/>
     </g>
     <g id="line2d_10">
      <g>
       <use style="stroke:#000000;stroke-width:0.8;" x="318.19164" xlink:href="#m054e5c5cb2" y="288.430125"/>
      </g>
     </g>
     <g id="text_5">
      <!-- 0.8 -->
      <defs>
       <path d="M 31.78125 34.625 
Q 24.75 34.625 20.71875 30.859375 
Q 16.703125 27.09375 16.703125 20.515625 
Q 16.703125 13.921875 20.71875 10.15625 
Q 24.75 6.390625 31.78125 6.390625 
Q 38.8125 6.390625 42.859375 10.171875 
Q 46.921875 13.96875 46.921875 20.515625 
Q 46.921875 27.09375 42.890625 30.859375 
Q 38.875 34.625 31.78125 34.625 
z
M 21.921875 38.8125 
Q 15.578125 40.375 12.03125 44.71875 
Q 8.5 49.078125 8.5 55.328125 
Q 8.5 64.0625 14.71875 69.140625 
Q 20.953125 74.21875 31.78125 74.21875 
Q 42.671875 74.21875 48.875 69.140625 
Q 55.078125 64.0625 55.078125 55.328125 
Q 55.078125 49.078125 51.53125 44.71875 
Q 48 40.375 41.703125 38.8125 
Q 48.828125 37.15625 52.796875 32.3125 
Q 56.78125 27.484375 56.78125 20.515625 
Q 56.78125 9.90625 50.3125 4.234375 
Q 43.84375 -1.421875 31.78125 -1.421875 
Q 19.734375 -1.421875 13.25 4.234375 
Q 6.78125 9.90625 6.78125 20.515625 
Q 6.78125 27.484375 10.78125 32.3125 
Q 14.796875 37.15625 21.921875 38.8125 
z
M 18.3125 54.390625 
Q 18.3125 48.734375 21.84375 45.5625 
Q 25.390625 42.390625 31.78125 42.390625 
Q 38.140625 42.390625 41.71875 45.5625 
Q 45.3125 48.734375 45.3125 54.390625 
Q 45.3125 60.0625 41.71875 63.234375 
Q 38.140625 66.40625 31.78125 66.40625 
Q 25.390625 66.40625 21.84375 63.234375 
Q 18.3125 60.0625 18.3125 54.390625 
z
" id="DejaVuSans-56"/>
      </defs>
      <g transform="translate(310.240077 303.028562)scale(0.1 -0.1)">
       <use xlink:href="#DejaVuSans-48"/>
       <use x="63.623047" xlink:href="#DejaVuSans-46"/>
       <use x="95.410156" xlink:href="#DejaVuSans-56"/>
      </g>
     </g>
    </g>
    <g id="xtick_6">
     <g id="line2d_11">
      <path clip-path="url(#pd513abbd5a)" d="M 384.668523 288.430125 
L 384.668523 22.318125 
" style="fill:none;stroke:#b0b0b0;stroke-dasharray:0.8,1.32;stroke-dashoffset:0;stroke-width:0.8;"/>
     </g>
     <g id="line2d_12">
      <g>
       <use style="stroke:#000000;stroke-width:0.8;" x="384.668523" xlink:href="#m054e5c5cb2" y="288.430125"/>
      </g>
     </g>
     <g id="text_6">
      <!-- 1.0 -->
      <defs>
       <path d="M 12.40625 8.296875 
L 28.515625 8.296875 
L 28.515625 63.921875 
L 10.984375 60.40625 
L 10.984375 69.390625 
L 28.421875 72.90625 
L 38.28125 72.90625 
L 38.28125 8.296875 
L 54.390625 8.296875 
L 54.390625 0 
L 12.40625 0 
z
" id="DejaVuSans-49"/>
      </defs>
      <g transform="translate(376.71696 303.028562)scale(0.1 -0.1)">
       <use xlink:href="#DejaVuSans-49"/>
       <use x="63.623047" xlink:href="#DejaVuSans-46"/>
       <use x="95.410156" xlink:href="#DejaVuSans-48"/>
      </g>
     </g>
    </g>
    <g id="text_7">
     <!-- Percent of tweets -->
     <defs>
      <path d="M 19.671875 64.796875 
L 19.671875 37.40625 
L 32.078125 37.40625 
Q 38.96875 37.40625 42.71875 40.96875 
Q 46.484375 44.53125 46.484375 51.125 
Q 46.484375 57.671875 42.71875 61.234375 
Q 38.96875 64.796875 32.078125 64.796875 
z
M 9.8125 72.90625 
L 32.078125 72.90625 
Q 44.34375 72.90625 50.609375 67.359375 
Q 56.890625 61.8125 56.890625 51.125 
Q 56.890625 40.328125 50.609375 34.8125 
Q 44.34375 29.296875 32.078125 29.296875 
L 19.671875 29.296875 
L 19.671875 0 
L 9.8125 0 
z
" id="DejaVuSans-80"/>
      <path d="M 56.203125 29.59375 
L 56.203125 25.203125 
L 14.890625 25.203125 
Q 15.484375 15.921875 20.484375 11.0625 
Q 25.484375 6.203125 34.421875 6.203125 
Q 39.59375 6.203125 44.453125 7.46875 
Q 49.3125 8.734375 54.109375 11.28125 
L 54.109375 2.78125 
Q 49.265625 0.734375 44.1875 -0.34375 
Q 39.109375 -1.421875 33.890625 -1.421875 
Q 20.796875 -1.421875 13.15625 6.1875 
Q 5.515625 13.8125 5.515625 26.8125 
Q 5.515625 40.234375 12.765625 48.109375 
Q 20.015625 56 32.328125 56 
Q 43.359375 56 49.78125 48.890625 
Q 56.203125 41.796875 56.203125 29.59375 
z
M 47.21875 32.234375 
Q 47.125 39.59375 43.09375 43.984375 
Q 39.0625 48.390625 32.421875 48.390625 
Q 24.90625 48.390625 20.390625 44.140625 
Q 15.875 39.890625 15.1875 32.171875 
z
" id="DejaVuSans-101"/>
      <path d="M 41.109375 46.296875 
Q 39.59375 47.171875 37.8125 47.578125 
Q 36.03125 48 33.890625 48 
Q 26.265625 48 22.1875 43.046875 
Q 18.109375 38.09375 18.109375 28.8125 
L 18.109375 0 
L 9.078125 0 
L 9.078125 54.6875 
L 18.109375 54.6875 
L 18.109375 46.1875 
Q 20.953125 51.171875 25.484375 53.578125 
Q 30.03125 56 36.53125 56 
Q 37.453125 56 38.578125 55.875 
Q 39.703125 55.765625 41.0625 55.515625 
z
" id="DejaVuSans-114"/>
      <path d="M 48.78125 52.59375 
L 48.78125 44.1875 
Q 44.96875 46.296875 41.140625 47.34375 
Q 37.3125 48.390625 33.40625 48.390625 
Q 24.65625 48.390625 19.8125 42.84375 
Q 14.984375 37.3125 14.984375 27.296875 
Q 14.984375 17.28125 19.8125 11.734375 
Q 24.65625 6.203125 33.40625 6.203125 
Q 37.3125 6.203125 41.140625 7.25 
Q 44.96875 8.296875 48.78125 10.40625 
L 48.78125 2.09375 
Q 45.015625 0.34375 40.984375 -0.53125 
Q 36.96875 -1.421875 32.421875 -1.421875 
Q 20.0625 -1.421875 12.78125 6.34375 
Q 5.515625 14.109375 5.515625 27.296875 
Q 5.515625 40.671875 12.859375 48.328125 
Q 20.21875 56 33.015625 56 
Q 37.15625 56 41.109375 55.140625 
Q 45.0625 54.296875 48.78125 52.59375 
z
" id="DejaVuSans-99"/>
      <path d="M 54.890625 33.015625 
L 54.890625 0 
L 45.90625 0 
L 45.90625 32.71875 
Q 45.90625 40.484375 42.875 44.328125 
Q 39.84375 48.1875 33.796875 48.1875 
Q 26.515625 48.1875 22.3125 43.546875 
Q 18.109375 38.921875 18.109375 30.90625 
L 18.109375 0 
L 9.078125 0 
L 9.078125 54.6875 
L 18.109375 54.6875 
L 18.109375 46.1875 
Q 21.34375 51.125 25.703125 53.5625 
Q 30.078125 56 35.796875 56 
Q 45.21875 56 50.046875 50.171875 
Q 54.890625 44.34375 54.890625 33.015625 
z
" id="DejaVuSans-110"/>
      <path d="M 18.3125 70.21875 
L 18.3125 54.6875 
L 36.8125 54.6875 
L 36.8125 47.703125 
L 18.3125 47.703125 
L 18.3125 18.015625 
Q 18.3125 11.328125 20.140625 9.421875 
Q 21.96875 7.515625 27.59375 7.515625 
L 36.8125 7.515625 
L 36.8125 0 
L 27.59375 0 
Q 17.1875 0 13.234375 3.875 
Q 9.28125 7.765625 9.28125 18.015625 
L 9.28125 47.703125 
L 2.6875 47.703125 
L 2.6875 54.6875 
L 9.28125 54.6875 
L 9.28125 70.21875 
z
" id="DejaVuSans-116"/>
      <path id="DejaVuSans-32"/>
      <path d="M 30.609375 48.390625 
Q 23.390625 48.390625 19.1875 42.75 
Q 14.984375 37.109375 14.984375 27.296875 
Q 14.984375 17.484375 19.15625 11.84375 
Q 23.34375 6.203125 30.609375 6.203125 
Q 37.796875 6.203125 41.984375 11.859375 
Q 46.1875 17.53125 46.1875 27.296875 
Q 46.1875 37.015625 41.984375 42.703125 
Q 37.796875 48.390625 30.609375 48.390625 
z
M 30.609375 56 
Q 42.328125 56 49.015625 48.375 
Q 55.71875 40.765625 55.71875 27.296875 
Q 55.71875 13.875 49.015625 6.21875 
Q 42.328125 -1.421875 30.609375 -1.421875 
Q 18.84375 -1.421875 12.171875 6.21875 
Q 5.515625 13.875 5.515625 27.296875 
Q 5.515625 40.765625 12.171875 48.375 
Q 18.84375 56 30.609375 56 
z
" id="DejaVuSans-111"/>
      <path d="M 37.109375 75.984375 
L 37.109375 68.5 
L 28.515625 68.5 
Q 23.6875 68.5 21.796875 66.546875 
Q 19.921875 64.59375 19.921875 59.515625 
L 19.921875 54.6875 
L 34.71875 54.6875 
L 34.71875 47.703125 
L 19.921875 47.703125 
L 19.921875 0 
L 10.890625 0 
L 10.890625 47.703125 
L 2.296875 47.703125 
L 2.296875 54.6875 
L 10.890625 54.6875 
L 10.890625 58.5 
Q 10.890625 67.625 15.140625 71.796875 
Q 19.390625 75.984375 28.609375 75.984375 
z
" id="DejaVuSans-102"/>
      <path d="M 4.203125 54.6875 
L 13.1875 54.6875 
L 24.421875 12.015625 
L 35.59375 54.6875 
L 46.1875 54.6875 
L 57.421875 12.015625 
L 68.609375 54.6875 
L 77.59375 54.6875 
L 63.28125 0 
L 52.6875 0 
L 40.921875 44.828125 
L 29.109375 0 
L 18.5 0 
z
" id="DejaVuSans-119"/>
      <path d="M 44.28125 53.078125 
L 44.28125 44.578125 
Q 40.484375 46.53125 36.375 47.5 
Q 32.28125 48.484375 27.875 48.484375 
Q 21.1875 48.484375 17.84375 46.4375 
Q 14.5 44.390625 14.5 40.28125 
Q 14.5 37.15625 16.890625 35.375 
Q 19.28125 33.59375 26.515625 31.984375 
L 29.59375 31.296875 
Q 39.15625 29.25 43.1875 25.515625 
Q 47.21875 21.78125 47.21875 15.09375 
Q 47.21875 7.46875 41.1875 3.015625 
Q 35.15625 -1.421875 24.609375 -1.421875 
Q 20.21875 -1.421875 15.453125 -0.5625 
Q 10.6875 0.296875 5.421875 2 
L 5.421875 11.28125 
Q 10.40625 8.6875 15.234375 7.390625 
Q 20.0625 6.109375 24.8125 6.109375 
Q 31.15625 6.109375 34.5625 8.28125 
Q 37.984375 10.453125 37.984375 14.40625 
Q 37.984375 18.0625 35.515625 20.015625 
Q 33.0625 21.96875 24.703125 23.78125 
L 21.578125 24.515625 
Q 13.234375 26.265625 9.515625 29.90625 
Q 5.8125 33.546875 5.8125 39.890625 
Q 5.8125 47.609375 11.28125 51.796875 
Q 16.75 56 26.8125 56 
Q 31.78125 56 36.171875 55.265625 
Q 40.578125 54.546875 44.28125 53.078125 
z
" id="DejaVuSans-115"/>
     </defs>
     <g transform="translate(178.47875 316.706687)scale(0.1 -0.1)">
      <use xlink:href="#DejaVuSans-80"/>
      <use x="60.255859" xlink:href="#DejaVuSans-101"/>
      <use x="121.779297" xlink:href="#DejaVuSans-114"/>
      <use x="162.861328" xlink:href="#DejaVuSans-99"/>
      <use x="217.841797" xlink:href="#DejaVuSans-101"/>
      <use x="279.365234" xlink:href="#DejaVuSans-110"/>
      <use x="342.744141" xlink:href="#DejaVuSans-116"/>
      <use x="381.953125" xlink:href="#DejaVuSans-32"/>
      <use x="413.740234" xlink:href="#DejaVuSans-111"/>
      <use x="474.921875" xlink:href="#DejaVuSans-102"/>
      <use x="510.126953" xlink:href="#DejaVuSans-32"/>
      <use x="541.914062" xlink:href="#DejaVuSans-116"/>
      <use x="581.123047" xlink:href="#DejaVuSans-119"/>
      <use x="662.910156" xlink:href="#DejaVuSans-101"/>
      <use x="724.433594" xlink:href="#DejaVuSans-101"/>
      <use x="785.957031" xlink:href="#DejaVuSans-116"/>
      <use x="825.166016" xlink:href="#DejaVuSans-115"/>
     </g>
    </g>
   </g>
   <g id="matplotlib.axis_2">
    <g id="ytick_1">
     <g id="line2d_13">
      <path clip-path="url(#pd513abbd5a)" d="M 43.78125 288.430125 
L 400.90125 288.430125 
" style="fill:none;stroke:#b0b0b0;stroke-dasharray:0.8,1.32;stroke-dashoffset:0;stroke-width:0.8;"/>
     </g>
     <g id="line2d_14">
      <defs>
       <path d="M 0 0 
L -3.5 0 
" id="mc639f3f88f" style="stroke:#000000;stroke-width:0.8;"/>
      </defs>
      <g>
       <use style="stroke:#000000;stroke-width:0.8;" x="43.78125" xlink:href="#mc639f3f88f" y="288.430125"/>
      </g>
     </g>
     <g id="text_8">
      <!-- 0.0 -->
      <g transform="translate(20.878125 292.229344)scale(0.1 -0.1)">
       <use xlink:href="#DejaVuSans-48"/>
       <use x="63.623047" xlink:href="#DejaVuSans-46"/>
       <use x="95.410156" xlink:href="#DejaVuSans-48"/>
      </g>
     </g>
    </g>
    <g id="ytick_2">
     <g id="line2d_15">
      <path clip-path="url(#pd513abbd5a)" d="M 43.78125 261.818925 
L 400.90125 261.818925 
" style="fill:none;stroke:#b0b0b0;stroke-dasharray:0.8,1.32;stroke-dashoffset:0;stroke-width:0.8;"/>
     </g>
     <g id="line2d_16">
      <g>
       <use style="stroke:#000000;stroke-width:0.8;" x="43.78125" xlink:href="#mc639f3f88f" y="261.818925"/>
      </g>
     </g>
     <g id="text_9">
      <!-- 0.1 -->
      <g transform="translate(20.878125 265.618144)scale(0.1 -0.1)">
       <use xlink:href="#DejaVuSans-48"/>
       <use x="63.623047" xlink:href="#DejaVuSans-46"/>
       <use x="95.410156" xlink:href="#DejaVuSans-49"/>
      </g>
     </g>
    </g>
    <g id="ytick_3">
     <g id="line2d_17">
      <path clip-path="url(#pd513abbd5a)" d="M 43.78125 235.207725 
L 400.90125 235.207725 
" style="fill:none;stroke:#b0b0b0;stroke-dasharray:0.8,1.32;stroke-dashoffset:0;stroke-width:0.8;"/>
     </g>
     <g id="line2d_18">
      <g>
       <use style="stroke:#000000;stroke-width:0.8;" x="43.78125" xlink:href="#mc639f3f88f" y="235.207725"/>
      </g>
     </g>
     <g id="text_10">
      <!-- 0.2 -->
      <g transform="translate(20.878125 239.006944)scale(0.1 -0.1)">
       <use xlink:href="#DejaVuSans-48"/>
       <use x="63.623047" xlink:href="#DejaVuSans-46"/>
       <use x="95.410156" xlink:href="#DejaVuSans-50"/>
      </g>
     </g>
    </g>
    <g id="ytick_4">
     <g id="line2d_19">
      <path clip-path="url(#pd513abbd5a)" d="M 43.78125 208.596525 
L 400.90125 208.596525 
" style="fill:none;stroke:#b0b0b0;stroke-dasharray:0.8,1.32;stroke-dashoffset:0;stroke-width:0.8;"/>
     </g>
     <g id="line2d_20">
      <g>
       <use style="stroke:#000000;stroke-width:0.8;" x="43.78125" xlink:href="#mc639f3f88f" y="208.596525"/>
      </g>
     </g>
     <g id="text_11">
      <!-- 0.3 -->
      <defs>
       <path d="M 40.578125 39.3125 
Q 47.65625 37.796875 51.625 33 
Q 55.609375 28.21875 55.609375 21.1875 
Q 55.609375 10.40625 48.1875 4.484375 
Q 40.765625 -1.421875 27.09375 -1.421875 
Q 22.515625 -1.421875 17.65625 -0.515625 
Q 12.796875 0.390625 7.625 2.203125 
L 7.625 11.71875 
Q 11.71875 9.328125 16.59375 8.109375 
Q 21.484375 6.890625 26.8125 6.890625 
Q 36.078125 6.890625 40.9375 10.546875 
Q 45.796875 14.203125 45.796875 21.1875 
Q 45.796875 27.640625 41.28125 31.265625 
Q 36.765625 34.90625 28.71875 34.90625 
L 20.21875 34.90625 
L 20.21875 43.015625 
L 29.109375 43.015625 
Q 36.375 43.015625 40.234375 45.921875 
Q 44.09375 48.828125 44.09375 54.296875 
Q 44.09375 59.90625 40.109375 62.90625 
Q 36.140625 65.921875 28.71875 65.921875 
Q 24.65625 65.921875 20.015625 65.03125 
Q 15.375 64.15625 9.8125 62.3125 
L 9.8125 71.09375 
Q 15.4375 72.65625 20.34375 73.4375 
Q 25.25 74.21875 29.59375 74.21875 
Q 40.828125 74.21875 47.359375 69.109375 
Q 53.90625 64.015625 53.90625 55.328125 
Q 53.90625 49.265625 50.4375 45.09375 
Q 46.96875 40.921875 40.578125 39.3125 
z
" id="DejaVuSans-51"/>
      </defs>
      <g transform="translate(20.878125 212.395744)scale(0.1 -0.1)">
       <use xlink:href="#DejaVuSans-48"/>
       <use x="63.623047" xlink:href="#DejaVuSans-46"/>
       <use x="95.410156" xlink:href="#DejaVuSans-51"/>
      </g>
     </g>
    </g>
    <g id="ytick_5">
     <g id="line2d_21">
      <path clip-path="url(#pd513abbd5a)" d="M 43.78125 181.985325 
L 400.90125 181.985325 
" style="fill:none;stroke:#b0b0b0;stroke-dasharray:0.8,1.32;stroke-dashoffset:0;stroke-width:0.8;"/>
     </g>
     <g id="line2d_22">
      <g>
       <use style="stroke:#000000;stroke-width:0.8;" x="43.78125" xlink:href="#mc639f3f88f" y="181.985325"/>
      </g>
     </g>
     <g id="text_12">
      <!-- 0.4 -->
      <g transform="translate(20.878125 185.784544)scale(0.1 -0.1)">
       <use xlink:href="#DejaVuSans-48"/>
       <use x="63.623047" xlink:href="#DejaVuSans-46"/>
       <use x="95.410156" xlink:href="#DejaVuSans-52"/>
      </g>
     </g>
    </g>
    <g id="ytick_6">
     <g id="line2d_23">
      <path clip-path="url(#pd513abbd5a)" d="M 43.78125 155.374125 
L 400.90125 155.374125 
" style="fill:none;stroke:#b0b0b0;stroke-dasharray:0.8,1.32;stroke-dashoffset:0;stroke-width:0.8;"/>
     </g>
     <g id="line2d_24">
      <g>
       <use style="stroke:#000000;stroke-width:0.8;" x="43.78125" xlink:href="#mc639f3f88f" y="155.374125"/>
      </g>
     </g>
     <g id="text_13">
      <!-- 0.5 -->
      <defs>
       <path d="M 10.796875 72.90625 
L 49.515625 72.90625 
L 49.515625 64.59375 
L 19.828125 64.59375 
L 19.828125 46.734375 
Q 21.96875 47.46875 24.109375 47.828125 
Q 26.265625 48.1875 28.421875 48.1875 
Q 40.625 48.1875 47.75 41.5 
Q 54.890625 34.8125 54.890625 23.390625 
Q 54.890625 11.625 47.5625 5.09375 
Q 40.234375 -1.421875 26.90625 -1.421875 
Q 22.3125 -1.421875 17.546875 -0.640625 
Q 12.796875 0.140625 7.71875 1.703125 
L 7.71875 11.625 
Q 12.109375 9.234375 16.796875 8.0625 
Q 21.484375 6.890625 26.703125 6.890625 
Q 35.15625 6.890625 40.078125 11.328125 
Q 45.015625 15.765625 45.015625 23.390625 
Q 45.015625 31 40.078125 35.4375 
Q 35.15625 39.890625 26.703125 39.890625 
Q 22.75 39.890625 18.8125 39.015625 
Q 14.890625 38.140625 10.796875 36.28125 
z
" id="DejaVuSans-53"/>
      </defs>
      <g transform="translate(20.878125 159.173344)scale(0.1 -0.1)">
       <use xlink:href="#DejaVuSans-48"/>
       <use x="63.623047" xlink:href="#DejaVuSans-46"/>
       <use x="95.410156" xlink:href="#DejaVuSans-53"/>
      </g>
     </g>
    </g>
    <g id="ytick_7">
     <g id="line2d_25">
      <path clip-path="url(#pd513abbd5a)" d="M 43.78125 128.762925 
L 400.90125 128.762925 
" style="fill:none;stroke:#b0b0b0;stroke-dasharray:0.8,1.32;stroke-dashoffset:0;stroke-width:0.8;"/>
     </g>
     <g id="line2d_26">
      <g>
       <use style="stroke:#000000;stroke-width:0.8;" x="43.78125" xlink:href="#mc639f3f88f" y="128.762925"/>
      </g>
     </g>
     <g id="text_14">
      <!-- 0.6 -->
      <g transform="translate(20.878125 132.562144)scale(0.1 -0.1)">
       <use xlink:href="#DejaVuSans-48"/>
       <use x="63.623047" xlink:href="#DejaVuSans-46"/>
       <use x="95.410156" xlink:href="#DejaVuSans-54"/>
      </g>
     </g>
    </g>
    <g id="ytick_8">
     <g id="line2d_27">
      <path clip-path="url(#pd513abbd5a)" d="M 43.78125 102.151725 
L 400.90125 102.151725 
" style="fill:none;stroke:#b0b0b0;stroke-dasharray:0.8,1.32;stroke-dashoffset:0;stroke-width:0.8;"/>
     </g>
     <g id="line2d_28">
      <g>
       <use style="stroke:#000000;stroke-width:0.8;" x="43.78125" xlink:href="#mc639f3f88f" y="102.151725"/>
      </g>
     </g>
     <g id="text_15">
      <!-- 0.7 -->
      <defs>
       <path d="M 8.203125 72.90625 
L 55.078125 72.90625 
L 55.078125 68.703125 
L 28.609375 0 
L 18.3125 0 
L 43.21875 64.59375 
L 8.203125 64.59375 
z
" id="DejaVuSans-55"/>
      </defs>
      <g transform="translate(20.878125 105.950944)scale(0.1 -0.1)">
       <use xlink:href="#DejaVuSans-48"/>
       <use x="63.623047" xlink:href="#DejaVuSans-46"/>
       <use x="95.410156" xlink:href="#DejaVuSans-55"/>
      </g>
     </g>
    </g>
    <g id="ytick_9">
     <g id="line2d_29">
      <path clip-path="url(#pd513abbd5a)" d="M 43.78125 75.540525 
L 400.90125 75.540525 
" style="fill:none;stroke:#b0b0b0;stroke-dasharray:0.8,1.32;stroke-dashoffset:0;stroke-width:0.8;"/>
     </g>
     <g id="line2d_30">
      <g>
       <use style="stroke:#000000;stroke-width:0.8;" x="43.78125" xlink:href="#mc639f3f88f" y="75.540525"/>
      </g>
     </g>
     <g id="text_16">
      <!-- 0.8 -->
      <g transform="translate(20.878125 79.339744)scale(0.1 -0.1)">
       <use xlink:href="#DejaVuSans-48"/>
       <use x="63.623047" xlink:href="#DejaVuSans-46"/>
       <use x="95.410156" xlink:href="#DejaVuSans-56"/>
      </g>
     </g>
    </g>
    <g id="ytick_10">
     <g id="line2d_31">
      <path clip-path="url(#pd513abbd5a)" d="M 43.78125 48.929325 
L 400.90125 48.929325 
" style="fill:none;stroke:#b0b0b0;stroke-dasharray:0.8,1.32;stroke-dashoffset:0;stroke-width:0.8;"/>
     </g>
     <g id="line2d_32">
      <g>
       <use style="stroke:#000000;stroke-width:0.8;" x="43.78125" xlink:href="#mc639f3f88f" y="48.929325"/>
      </g>
     </g>
     <g id="text_17">
      <!-- 0.9 -->
      <defs>
       <path d="M 10.984375 1.515625 
L 10.984375 10.5 
Q 14.703125 8.734375 18.5 7.8125 
Q 22.3125 6.890625 25.984375 6.890625 
Q 35.75 6.890625 40.890625 13.453125 
Q 46.046875 20.015625 46.78125 33.40625 
Q 43.953125 29.203125 39.59375 26.953125 
Q 35.25 24.703125 29.984375 24.703125 
Q 19.046875 24.703125 12.671875 31.3125 
Q 6.296875 37.9375 6.296875 49.421875 
Q 6.296875 60.640625 12.9375 67.421875 
Q 19.578125 74.21875 30.609375 74.21875 
Q 43.265625 74.21875 49.921875 64.515625 
Q 56.59375 54.828125 56.59375 36.375 
Q 56.59375 19.140625 48.40625 8.859375 
Q 40.234375 -1.421875 26.421875 -1.421875 
Q 22.703125 -1.421875 18.890625 -0.6875 
Q 15.09375 0.046875 10.984375 1.515625 
z
M 30.609375 32.421875 
Q 37.25 32.421875 41.125 36.953125 
Q 45.015625 41.5 45.015625 49.421875 
Q 45.015625 57.28125 41.125 61.84375 
Q 37.25 66.40625 30.609375 66.40625 
Q 23.96875 66.40625 20.09375 61.84375 
Q 16.21875 57.28125 16.21875 49.421875 
Q 16.21875 41.5 20.09375 36.953125 
Q 23.96875 32.421875 30.609375 32.421875 
z
" id="DejaVuSans-57"/>
      </defs>
      <g transform="translate(20.878125 52.728544)scale(0.1 -0.1)">
       <use xlink:href="#DejaVuSans-48"/>
       <use x="63.623047" xlink:href="#DejaVuSans-46"/>
       <use x="95.410156" xlink:href="#DejaVuSans-57"/>
      </g>
     </g>
    </g>
    <g id="ytick_11">
     <g id="line2d_33">
      <path clip-path="url(#pd513abbd5a)" d="M 43.78125 22.318125 
L 400.90125 22.318125 
" style="fill:none;stroke:#b0b0b0;stroke-dasharray:0.8,1.32;stroke-dashoffset:0;stroke-width:0.8;"/>
     </g>
     <g id="line2d_34">
      <g>
       <use style="stroke:#000000;stroke-width:0.8;" x="43.78125" xlink:href="#mc639f3f88f" y="22.318125"/>
      </g>
     </g>
     <g id="text_18">
      <!-- 1.0 -->
      <g transform="translate(20.878125 26.117344)scale(0.1 -0.1)">
       <use xlink:href="#DejaVuSans-49"/>
       <use x="63.623047" xlink:href="#DejaVuSans-46"/>
       <use x="95.410156" xlink:href="#DejaVuSans-48"/>
      </g>
     </g>
    </g>
    <g id="text_19">
     <!-- Neg ratio -->
     <defs>
      <path d="M 9.8125 72.90625 
L 23.09375 72.90625 
L 55.421875 11.921875 
L 55.421875 72.90625 
L 64.984375 72.90625 
L 64.984375 0 
L 51.703125 0 
L 19.390625 60.984375 
L 19.390625 0 
L 9.8125 0 
z
" id="DejaVuSans-78"/>
      <path d="M 45.40625 27.984375 
Q 45.40625 37.75 41.375 43.109375 
Q 37.359375 48.484375 30.078125 48.484375 
Q 22.859375 48.484375 18.828125 43.109375 
Q 14.796875 37.75 14.796875 27.984375 
Q 14.796875 18.265625 18.828125 12.890625 
Q 22.859375 7.515625 30.078125 7.515625 
Q 37.359375 7.515625 41.375 12.890625 
Q 45.40625 18.265625 45.40625 27.984375 
z
M 54.390625 6.78125 
Q 54.390625 -7.171875 48.1875 -13.984375 
Q 42 -20.796875 29.203125 -20.796875 
Q 24.46875 -20.796875 20.265625 -20.09375 
Q 16.0625 -19.390625 12.109375 -17.921875 
L 12.109375 -9.1875 
Q 16.0625 -11.328125 19.921875 -12.34375 
Q 23.78125 -13.375 27.78125 -13.375 
Q 36.625 -13.375 41.015625 -8.765625 
Q 45.40625 -4.15625 45.40625 5.171875 
L 45.40625 9.625 
Q 42.625 4.78125 38.28125 2.390625 
Q 33.9375 0 27.875 0 
Q 17.828125 0 11.671875 7.65625 
Q 5.515625 15.328125 5.515625 27.984375 
Q 5.515625 40.671875 11.671875 48.328125 
Q 17.828125 56 27.875 56 
Q 33.9375 56 38.28125 53.609375 
Q 42.625 51.21875 45.40625 46.390625 
L 45.40625 54.6875 
L 54.390625 54.6875 
z
" id="DejaVuSans-103"/>
      <path d="M 34.28125 27.484375 
Q 23.390625 27.484375 19.1875 25 
Q 14.984375 22.515625 14.984375 16.5 
Q 14.984375 11.71875 18.140625 8.90625 
Q 21.296875 6.109375 26.703125 6.109375 
Q 34.1875 6.109375 38.703125 11.40625 
Q 43.21875 16.703125 43.21875 25.484375 
L 43.21875 27.484375 
z
M 52.203125 31.203125 
L 52.203125 0 
L 43.21875 0 
L 43.21875 8.296875 
Q 40.140625 3.328125 35.546875 0.953125 
Q 30.953125 -1.421875 24.3125 -1.421875 
Q 15.921875 -1.421875 10.953125 3.296875 
Q 6 8.015625 6 15.921875 
Q 6 25.140625 12.171875 29.828125 
Q 18.359375 34.515625 30.609375 34.515625 
L 43.21875 34.515625 
L 43.21875 35.40625 
Q 43.21875 41.609375 39.140625 45 
Q 35.0625 48.390625 27.6875 48.390625 
Q 23 48.390625 18.546875 47.265625 
Q 14.109375 46.140625 10.015625 43.890625 
L 10.015625 52.203125 
Q 14.9375 54.109375 19.578125 55.046875 
Q 24.21875 56 28.609375 56 
Q 40.484375 56 46.34375 49.84375 
Q 52.203125 43.703125 52.203125 31.203125 
z
" id="DejaVuSans-97"/>
      <path d="M 9.421875 54.6875 
L 18.40625 54.6875 
L 18.40625 0 
L 9.421875 0 
z
M 9.421875 75.984375 
L 18.40625 75.984375 
L 18.40625 64.59375 
L 9.421875 64.59375 
z
" id="DejaVuSans-105"/>
     </defs>
     <g transform="translate(14.798438 178.482719)rotate(-90)scale(0.1 -0.1)">
      <use xlink:href="#DejaVuSans-78"/>
      <use x="74.804688" xlink:href="#DejaVuSans-101"/>
      <use x="136.328125" xlink:href="#DejaVuSans-103"/>
      <use x="199.804688" xlink:href="#DejaVuSans-32"/>
      <use x="231.591797" xlink:href="#DejaVuSans-114"/>
      <use x="272.705078" xlink:href="#DejaVuSans-97"/>
      <use x="333.984375" xlink:href="#DejaVuSans-116"/>
      <use x="373.193359" xlink:href="#DejaVuSans-105"/>
      <use x="400.976562" xlink:href="#DejaVuSans-111"/>
     </g>
    </g>
   </g>
   <g id="line2d_35">
    <path clip-path="url(#pd513abbd5a)" d="M 60.198022 247.721774 
L 68.111936 241.319388 
L 76.025851 236.413898 
L 83.939766 234.66092 
L 91.85368 231.22848 
L 99.767595 226.782557 
L 107.68151 221.503754 
L 115.595424 220.318125 
L 123.509339 212.8136 
L 131.423254 212.398125 
L 139.337168 212.270125 
L 147.251083 209.582125 
L 155.164998 203.221849 
L 163.078912 202.498125 
L 170.992827 201.910953 
L 178.906742 198.169914 
L 186.820656 197.785725 
L 194.734571 195.585152 
L 202.648486 193.473861 
L 210.5624 190.084386 
L 218.476315 188.961076 
L 226.39023 186.243117 
L 234.304144 181.315861 
L 242.218059 180.101346 
L 250.131974 179.884441 
L 258.045888 179.287415 
L 265.959803 179.046665 
L 273.873718 177.891294 
L 281.787632 177.550125 
L 289.701547 175.225222 
L 297.615462 173.988177 
L 305.529376 173.063651 
L 313.443291 172.729255 
L 321.357205 170.926125 
L 329.27112 168.585359 
L 337.185035 162.615268 
L 345.098949 162.548713 
L 353.012864 157.932894 
L 360.926779 157.925884 
L 368.840693 156.056463 
L 376.754608 154.864332 
L 384.668523 131.38042 
" style="fill:none;stroke:#0000ff;stroke-linecap:square;stroke-width:1.5;"/>
    <defs>
     <path d="M 0 1.5 
C 0.397805 1.5 0.77937 1.341951 1.06066 1.06066 
C 1.341951 0.77937 1.5 0.397805 1.5 0 
C 1.5 -0.397805 1.341951 -0.77937 1.06066 -1.06066 
C 0.77937 -1.341951 0.397805 -1.5 0 -1.5 
C -0.397805 -1.5 -0.77937 -1.341951 -1.06066 -1.06066 
C -1.341951 -0.77937 -1.5 -0.397805 -1.5 0 
C -1.5 0.397805 -1.341951 0.77937 -1.06066 1.06066 
C -0.77937 1.341951 -0.397805 1.5 0 1.5 
z
" id="mb0e5cf0b7b" style="stroke:#0000ff;"/>
    </defs>
    <g clip-path="url(#pd513abbd5a)">
     <use style="fill:#0000ff;stroke:#0000ff;" x="60.198022" xlink:href="#mb0e5cf0b7b" y="247.721774"/>
     <use style="fill:#0000ff;stroke:#0000ff;" x="68.111936" xlink:href="#mb0e5cf0b7b" y="241.319388"/>
     <use style="fill:#0000ff;stroke:#0000ff;" x="76.025851" xlink:href="#mb0e5cf0b7b" y="236.413898"/>
     <use style="fill:#0000ff;stroke:#0000ff;" x="83.939766" xlink:href="#mb0e5cf0b7b" y="234.66092"/>
     <use style="fill:#0000ff;stroke:#0000ff;" x="91.85368" xlink:href="#mb0e5cf0b7b" y="231.22848"/>
     <use style="fill:#0000ff;stroke:#0000ff;" x="99.767595" xlink:href="#mb0e5cf0b7b" y="226.782557"/>
     <use style="fill:#0000ff;stroke:#0000ff;" x="107.68151" xlink:href="#mb0e5cf0b7b" y="221.503754"/>
     <use style="fill:#0000ff;stroke:#0000ff;" x="115.595424" xlink:href="#mb0e5cf0b7b" y="220.318125"/>
     <use style="fill:#0000ff;stroke:#0000ff;" x="123.509339" xlink:href="#mb0e5cf0b7b" y="212.8136"/>
     <use style="fill:#0000ff;stroke:#0000ff;" x="131.423254" xlink:href="#mb0e5cf0b7b" y="212.398125"/>
     <use style="fill:#0000ff;stroke:#0000ff;" x="139.337168" xlink:href="#mb0e5cf0b7b" y="212.270125"/>
     <use style="fill:#0000ff;stroke:#0000ff;" x="147.251083" xlink:href="#mb0e5cf0b7b" y="209.582125"/>
     <use style="fill:#0000ff;stroke:#0000ff;" x="155.164998" xlink:href="#mb0e5cf0b7b" y="203.221849"/>
     <use style="fill:#0000ff;stroke:#0000ff;" x="163.078912" xlink:href="#mb0e5cf0b7b" y="202.498125"/>
     <use style="fill:#0000ff;stroke:#0000ff;" x="170.992827" xlink:href="#mb0e5cf0b7b" y="201.910953"/>
     <use style="fill:#0000ff;stroke:#0000ff;" x="178.906742" xlink:href="#mb0e5cf0b7b" y="198.169914"/>
     <use style="fill:#0000ff;stroke:#0000ff;" x="186.820656" xlink:href="#mb0e5cf0b7b" y="197.785725"/>
     <use style="fill:#0000ff;stroke:#0000ff;" x="194.734571" xlink:href="#mb0e5cf0b7b" y="195.585152"/>
     <use style="fill:#0000ff;stroke:#0000ff;" x="202.648486" xlink:href="#mb0e5cf0b7b" y="193.473861"/>
     <use style="fill:#0000ff;stroke:#0000ff;" x="210.5624" xlink:href="#mb0e5cf0b7b" y="190.084386"/>
     <use style="fill:#0000ff;stroke:#0000ff;" x="218.476315" xlink:href="#mb0e5cf0b7b" y="188.961076"/>
     <use style="fill:#0000ff;stroke:#0000ff;" x="226.39023" xlink:href="#mb0e5cf0b7b" y="186.243117"/>
     <use style="fill:#0000ff;stroke:#0000ff;" x="234.304144" xlink:href="#mb0e5cf0b7b" y="181.315861"/>
     <use style="fill:#0000ff;stroke:#0000ff;" x="242.218059" xlink:href="#mb0e5cf0b7b" y="180.101346"/>
     <use style="fill:#0000ff;stroke:#0000ff;" x="250.131974" xlink:href="#mb0e5cf0b7b" y="179.884441"/>
     <use style="fill:#0000ff;stroke:#0000ff;" x="258.045888" xlink:href="#mb0e5cf0b7b" y="179.287415"/>
     <use style="fill:#0000ff;stroke:#0000ff;" x="265.959803" xlink:href="#mb0e5cf0b7b" y="179.046665"/>
     <use style="fill:#0000ff;stroke:#0000ff;" x="273.873718" xlink:href="#mb0e5cf0b7b" y="177.891294"/>
     <use style="fill:#0000ff;stroke:#0000ff;" x="281.787632" xlink:href="#mb0e5cf0b7b" y="177.550125"/>
     <use style="fill:#0000ff;stroke:#0000ff;" x="289.701547" xlink:href="#mb0e5cf0b7b" y="175.225222"/>
     <use style="fill:#0000ff;stroke:#0000ff;" x="297.615462" xlink:href="#mb0e5cf0b7b" y="173.988177"/>
     <use style="fill:#0000ff;stroke:#0000ff;" x="305.529376" xlink:href="#mb0e5cf0b7b" y="173.063651"/>
     <use style="fill:#0000ff;stroke:#0000ff;" x="313.443291" xlink:href="#mb0e5cf0b7b" y="172.729255"/>
     <use style="fill:#0000ff;stroke:#0000ff;" x="321.357205" xlink:href="#mb0e5cf0b7b" y="170.926125"/>
     <use style="fill:#0000ff;stroke:#0000ff;" x="329.27112" xlink:href="#mb0e5cf0b7b" y="168.585359"/>
     <use style="fill:#0000ff;stroke:#0000ff;" x="337.185035" xlink:href="#mb0e5cf0b7b" y="162.615268"/>
     <use style="fill:#0000ff;stroke:#0000ff;" x="345.098949" xlink:href="#mb0e5cf0b7b" y="162.548713"/>
     <use style="fill:#0000ff;stroke:#0000ff;" x="353.012864" xlink:href="#mb0e5cf0b7b" y="157.932894"/>
     <use style="fill:#0000ff;stroke:#0000ff;" x="360.926779" xlink:href="#mb0e5cf0b7b" y="157.925884"/>
     <use style="fill:#0000ff;stroke:#0000ff;" x="368.840693" xlink:href="#mb0e5cf0b7b" y="156.056463"/>
     <use style="fill:#0000ff;stroke:#0000ff;" x="376.754608" xlink:href="#mb0e5cf0b7b" y="154.864332"/>
     <use style="fill:#0000ff;stroke:#0000ff;" x="384.668523" xlink:href="#mb0e5cf0b7b" y="131.38042"/>
    </g>
   </g>
   <g id="line2d_36">
    <path clip-path="url(#pd513abbd5a)" d="M 60.013977 248.163178 
L 67.743847 244.078125 
L 75.473718 235.589704 
L 83.203588 234.318214 
L 90.933458 234.148573 
L 98.663328 233.608769 
L 106.393198 227.099625 
L 114.123068 225.975268 
L 121.852938 225.815537 
L 129.582808 224.521338 
L 137.312679 223.196444 
L 145.042549 223.097239 
L 152.772419 222.269683 
L 160.502289 220.846125 
L 168.232159 219.910269 
L 175.962029 214.546449 
L 183.691899 212.649887 
L 191.421769 210.022125 
L 199.15164 207.621245 
L 206.88151 207.207185 
L 214.61138 205.972886 
L 222.34125 203.889129 
L 230.07112 202.12353 
L 237.80099 199.726125 
L 245.53086 199.254295 
L 253.260731 193.031483 
L 260.990601 192.079228 
L 268.720471 188.481956 
L 276.450341 186.650237 
L 284.180211 184.942125 
L 291.910081 183.417318 
L 299.639951 179.602835 
L 307.369821 177.269416 
L 315.099692 176.728792 
L 322.829562 175.859578 
L 330.559432 175.500243 
L 338.289302 169.703233 
L 346.019172 164.244525 
L 353.749042 164.244525 
L 361.478912 162.870238 
L 369.208782 158.185167 
L 376.938653 151.32324 
L 384.668523 132.910125 
" style="fill:none;stroke:#ff0000;stroke-linecap:square;stroke-width:1.5;"/>
    <defs>
     <path d="M 0 1.5 
C 0.397805 1.5 0.77937 1.341951 1.06066 1.06066 
C 1.341951 0.77937 1.5 0.397805 1.5 0 
C 1.5 -0.397805 1.341951 -0.77937 1.06066 -1.06066 
C 0.77937 -1.341951 0.397805 -1.5 0 -1.5 
C -0.397805 -1.5 -0.77937 -1.341951 -1.06066 -1.06066 
C -1.341951 -0.77937 -1.5 -0.397805 -1.5 0 
C -1.5 0.397805 -1.341951 0.77937 -1.06066 1.06066 
C -0.77937 1.341951 -0.397805 1.5 0 1.5 
z
" id="m75be318ba5" style="stroke:#ff0000;"/>
    </defs>
    <g clip-path="url(#pd513abbd5a)">
     <use style="fill:#ff0000;stroke:#ff0000;" x="60.013977" xlink:href="#m75be318ba5" y="248.163178"/>
     <use style="fill:#ff0000;stroke:#ff0000;" x="67.743847" xlink:href="#m75be318ba5" y="244.078125"/>
     <use style="fill:#ff0000;stroke:#ff0000;" x="75.473718" xlink:href="#m75be318ba5" y="235.589704"/>
     <use style="fill:#ff0000;stroke:#ff0000;" x="83.203588" xlink:href="#m75be318ba5" y="234.318214"/>
     <use style="fill:#ff0000;stroke:#ff0000;" x="90.933458" xlink:href="#m75be318ba5" y="234.148573"/>
     <use style="fill:#ff0000;stroke:#ff0000;" x="98.663328" xlink:href="#m75be318ba5" y="233.608769"/>
     <use style="fill:#ff0000;stroke:#ff0000;" x="106.393198" xlink:href="#m75be318ba5" y="227.099625"/>
     <use style="fill:#ff0000;stroke:#ff0000;" x="114.123068" xlink:href="#m75be318ba5" y="225.975268"/>
     <use style="fill:#ff0000;stroke:#ff0000;" x="121.852938" xlink:href="#m75be318ba5" y="225.815537"/>
     <use style="fill:#ff0000;stroke:#ff0000;" x="129.582808" xlink:href="#m75be318ba5" y="224.521338"/>
     <use style="fill:#ff0000;stroke:#ff0000;" x="137.312679" xlink:href="#m75be318ba5" y="223.196444"/>
     <use style="fill:#ff0000;stroke:#ff0000;" x="145.042549" xlink:href="#m75be318ba5" y="223.097239"/>
     <use style="fill:#ff0000;stroke:#ff0000;" x="152.772419" xlink:href="#m75be318ba5" y="222.269683"/>
     <use style="fill:#ff0000;stroke:#ff0000;" x="160.502289" xlink:href="#m75be318ba5" y="220.846125"/>
     <use style="fill:#ff0000;stroke:#ff0000;" x="168.232159" xlink:href="#m75be318ba5" y="219.910269"/>
     <use style="fill:#ff0000;stroke:#ff0000;" x="175.962029" xlink:href="#m75be318ba5" y="214.546449"/>
     <use style="fill:#ff0000;stroke:#ff0000;" x="183.691899" xlink:href="#m75be318ba5" y="212.649887"/>
     <use style="fill:#ff0000;stroke:#ff0000;" x="191.421769" xlink:href="#m75be318ba5" y="210.022125"/>
     <use style="fill:#ff0000;stroke:#ff0000;" x="199.15164" xlink:href="#m75be318ba5" y="207.621245"/>
     <use style="fill:#ff0000;stroke:#ff0000;" x="206.88151" xlink:href="#m75be318ba5" y="207.207185"/>
     <use style="fill:#ff0000;stroke:#ff0000;" x="214.61138" xlink:href="#m75be318ba5" y="205.972886"/>
     <use style="fill:#ff0000;stroke:#ff0000;" x="222.34125" xlink:href="#m75be318ba5" y="203.889129"/>
     <use style="fill:#ff0000;stroke:#ff0000;" x="230.07112" xlink:href="#m75be318ba5" y="202.12353"/>
     <use style="fill:#ff0000;stroke:#ff0000;" x="237.80099" xlink:href="#m75be318ba5" y="199.726125"/>
     <use style="fill:#ff0000;stroke:#ff0000;" x="245.53086" xlink:href="#m75be318ba5" y="199.254295"/>
     <use style="fill:#ff0000;stroke:#ff0000;" x="253.260731" xlink:href="#m75be318ba5" y="193.031483"/>
     <use style="fill:#ff0000;stroke:#ff0000;" x="260.990601" xlink:href="#m75be318ba5" y="192.079228"/>
     <use style="fill:#ff0000;stroke:#ff0000;" x="268.720471" xlink:href="#m75be318ba5" y="188.481956"/>
     <use style="fill:#ff0000;stroke:#ff0000;" x="276.450341" xlink:href="#m75be318ba5" y="186.650237"/>
     <use style="fill:#ff0000;stroke:#ff0000;" x="284.180211" xlink:href="#m75be318ba5" y="184.942125"/>
     <use style="fill:#ff0000;stroke:#ff0000;" x="291.910081" xlink:href="#m75be318ba5" y="183.417318"/>
     <use style="fill:#ff0000;stroke:#ff0000;" x="299.639951" xlink:href="#m75be318ba5" y="179.602835"/>
     <use style="fill:#ff0000;stroke:#ff0000;" x="307.369821" xlink:href="#m75be318ba5" y="177.269416"/>
     <use style="fill:#ff0000;stroke:#ff0000;" x="315.099692" xlink:href="#m75be318ba5" y="176.728792"/>
     <use style="fill:#ff0000;stroke:#ff0000;" x="322.829562" xlink:href="#m75be318ba5" y="175.859578"/>
     <use style="fill:#ff0000;stroke:#ff0000;" x="330.559432" xlink:href="#m75be318ba5" y="175.500243"/>
     <use style="fill:#ff0000;stroke:#ff0000;" x="338.289302" xlink:href="#m75be318ba5" y="169.703233"/>
     <use style="fill:#ff0000;stroke:#ff0000;" x="346.019172" xlink:href="#m75be318ba5" y="164.244525"/>
     <use style="fill:#ff0000;stroke:#ff0000;" x="353.749042" xlink:href="#m75be318ba5" y="164.244525"/>
     <use style="fill:#ff0000;stroke:#ff0000;" x="361.478912" xlink:href="#m75be318ba5" y="162.870238"/>
     <use style="fill:#ff0000;stroke:#ff0000;" x="369.208782" xlink:href="#m75be318ba5" y="158.185167"/>
     <use style="fill:#ff0000;stroke:#ff0000;" x="376.938653" xlink:href="#m75be318ba5" y="151.32324"/>
     <use style="fill:#ff0000;stroke:#ff0000;" x="384.668523" xlink:href="#m75be318ba5" y="132.910125"/>
    </g>
   </g>
   <g id="patch_3">
    <path d="M 43.78125 288.430125 
L 43.78125 22.318125 
" style="fill:none;stroke:#000000;stroke-linecap:square;stroke-linejoin:miter;stroke-width:0.8;"/>
   </g>
   <g id="patch_4">
    <path d="M 400.90125 288.430125 
L 400.90125 22.318125 
" style="fill:none;stroke:#000000;stroke-linecap:square;stroke-linejoin:miter;stroke-width:0.8;"/>
   </g>
   <g id="patch_5">
    <path d="M 43.78125 288.430125 
L 400.90125 288.430125 
" style="fill:none;stroke:#000000;stroke-linecap:square;stroke-linejoin:miter;stroke-width:0.8;"/>
   </g>
   <g id="patch_6">
    <path d="M 43.78125 22.318125 
L 400.90125 22.318125 
" style="fill:none;stroke:#000000;stroke-linecap:square;stroke-linejoin:miter;stroke-width:0.8;"/>
   </g>
   <g id="text_20">
    <!-- ECDF Plot of neg ratio -->
    <defs>
     <path d="M 9.8125 72.90625 
L 55.90625 72.90625 
L 55.90625 64.59375 
L 19.671875 64.59375 
L 19.671875 43.015625 
L 54.390625 43.015625 
L 54.390625 34.71875 
L 19.671875 34.71875 
L 19.671875 8.296875 
L 56.78125 8.296875 
L 56.78125 0 
L 9.8125 0 
z
" id="DejaVuSans-69"/>
     <path d="M 64.40625 67.28125 
L 64.40625 56.890625 
Q 59.421875 61.53125 53.78125 63.8125 
Q 48.140625 66.109375 41.796875 66.109375 
Q 29.296875 66.109375 22.65625 58.46875 
Q 16.015625 50.828125 16.015625 36.375 
Q 16.015625 21.96875 22.65625 14.328125 
Q 29.296875 6.6875 41.796875 6.6875 
Q 48.140625 6.6875 53.78125 8.984375 
Q 59.421875 11.28125 64.40625 15.921875 
L 64.40625 5.609375 
Q 59.234375 2.09375 53.4375 0.328125 
Q 47.65625 -1.421875 41.21875 -1.421875 
Q 24.65625 -1.421875 15.125 8.703125 
Q 5.609375 18.84375 5.609375 36.375 
Q 5.609375 53.953125 15.125 64.078125 
Q 24.65625 74.21875 41.21875 74.21875 
Q 47.75 74.21875 53.53125 72.484375 
Q 59.328125 70.75 64.40625 67.28125 
z
" id="DejaVuSans-67"/>
     <path d="M 19.671875 64.796875 
L 19.671875 8.109375 
L 31.59375 8.109375 
Q 46.6875 8.109375 53.6875 14.9375 
Q 60.6875 21.78125 60.6875 36.53125 
Q 60.6875 51.171875 53.6875 57.984375 
Q 46.6875 64.796875 31.59375 64.796875 
z
M 9.8125 72.90625 
L 30.078125 72.90625 
Q 51.265625 72.90625 61.171875 64.09375 
Q 71.09375 55.28125 71.09375 36.53125 
Q 71.09375 17.671875 61.125 8.828125 
Q 51.171875 0 30.078125 0 
L 9.8125 0 
z
" id="DejaVuSans-68"/>
     <path d="M 9.8125 72.90625 
L 51.703125 72.90625 
L 51.703125 64.59375 
L 19.671875 64.59375 
L 19.671875 43.109375 
L 48.578125 43.109375 
L 48.578125 34.8125 
L 19.671875 34.8125 
L 19.671875 0 
L 9.8125 0 
z
" id="DejaVuSans-70"/>
     <path d="M 9.421875 75.984375 
L 18.40625 75.984375 
L 18.40625 0 
L 9.421875 0 
z
" id="DejaVuSans-108"/>
    </defs>
    <g transform="translate(156.433125 16.318125)scale(0.12 -0.12)">
     <use xlink:href="#DejaVuSans-69"/>
     <use x="63.183594" xlink:href="#DejaVuSans-67"/>
     <use x="133.007812" xlink:href="#DejaVuSans-68"/>
     <use x="210.009766" xlink:href="#DejaVuSans-70"/>
     <use x="267.529297" xlink:href="#DejaVuSans-32"/>
     <use x="299.316406" xlink:href="#DejaVuSans-80"/>
     <use x="359.619141" xlink:href="#DejaVuSans-108"/>
     <use x="387.402344" xlink:href="#DejaVuSans-111"/>
     <use x="448.583984" xlink:href="#DejaVuSans-116"/>
     <use x="487.792969" xlink:href="#DejaVuSans-32"/>
     <use x="519.580078" xlink:href="#DejaVuSans-111"/>
     <use x="580.761719" xlink:href="#DejaVuSans-102"/>
     <use x="615.966797" xlink:href="#DejaVuSans-32"/>
     <use x="647.753906" xlink:href="#DejaVuSans-110"/>
     <use x="711.132812" xlink:href="#DejaVuSans-101"/>
     <use x="772.65625" xlink:href="#DejaVuSans-103"/>
     <use x="836.132812" xlink:href="#DejaVuSans-32"/>
     <use x="867.919922" xlink:href="#DejaVuSans-114"/>
     <use x="909.033203" xlink:href="#DejaVuSans-97"/>
     <use x="970.3125" xlink:href="#DejaVuSans-116"/>
     <use x="1009.521484" xlink:href="#DejaVuSans-105"/>
     <use x="1037.304688" xlink:href="#DejaVuSans-111"/>
    </g>
   </g>
   <g id="legend_1">
    <g id="patch_7">
     <path d="M 407.90125 171.55225 
L 490.545 171.55225 
Q 492.545 171.55225 492.545 169.55225 
L 492.545 141.196 
Q 492.545 139.196 490.545 139.196 
L 407.90125 139.196 
Q 405.90125 139.196 405.90125 141.196 
L 405.90125 169.55225 
Q 405.90125 171.55225 407.90125 171.55225 
z
" style="fill:#ffffff;opacity:0.8;stroke:#cccccc;stroke-linejoin:miter;"/>
    </g>
    <g id="line2d_37">
     <path d="M 409.90125 147.294437 
L 429.90125 147.294437 
" style="fill:none;stroke:#0000ff;stroke-linecap:square;stroke-width:1.5;"/>
    </g>
    <g id="line2d_38">
     <g>
      <use style="fill:#0000ff;stroke:#0000ff;" x="419.90125" xlink:href="#mb0e5cf0b7b" y="147.294437"/>
     </g>
    </g>
    <g id="text_21">
     <!-- real news -->
     <g transform="translate(437.90125 150.794437)scale(0.1 -0.1)">
      <use xlink:href="#DejaVuSans-114"/>
      <use x="41.082031" xlink:href="#DejaVuSans-101"/>
      <use x="102.605469" xlink:href="#DejaVuSans-97"/>
      <use x="163.884766" xlink:href="#DejaVuSans-108"/>
      <use x="191.667969" xlink:href="#DejaVuSans-32"/>
      <use x="223.455078" xlink:href="#DejaVuSans-110"/>
      <use x="286.833984" xlink:href="#DejaVuSans-101"/>
      <use x="348.357422" xlink:href="#DejaVuSans-119"/>
      <use x="430.144531" xlink:href="#DejaVuSans-115"/>
     </g>
    </g>
    <g id="line2d_39">
     <path d="M 409.90125 161.972562 
L 429.90125 161.972562 
" style="fill:none;stroke:#ff0000;stroke-linecap:square;stroke-width:1.5;"/>
    </g>
    <g id="line2d_40">
     <g>
      <use style="fill:#ff0000;stroke:#ff0000;" x="419.90125" xlink:href="#m75be318ba5" y="161.972562"/>
     </g>
    </g>
    <g id="text_22">
     <!-- fake news -->
     <defs>
      <path d="M 9.078125 75.984375 
L 18.109375 75.984375 
L 18.109375 31.109375 
L 44.921875 54.6875 
L 56.390625 54.6875 
L 27.390625 29.109375 
L 57.625 0 
L 45.90625 0 
L 18.109375 26.703125 
L 18.109375 0 
L 9.078125 0 
z
" id="DejaVuSans-107"/>
     </defs>
     <g transform="translate(437.90125 165.472562)scale(0.1 -0.1)">
      <use xlink:href="#DejaVuSans-102"/>
      <use x="35.205078" xlink:href="#DejaVuSans-97"/>
      <use x="96.484375" xlink:href="#DejaVuSans-107"/>
      <use x="154.347656" xlink:href="#DejaVuSans-101"/>
      <use x="215.871094" xlink:href="#DejaVuSans-32"/>
      <use x="247.658203" xlink:href="#DejaVuSans-110"/>
      <use x="311.037109" xlink:href="#DejaVuSans-101"/>
      <use x="372.560547" xlink:href="#DejaVuSans-119"/>
      <use x="454.347656" xlink:href="#DejaVuSans-115"/>
     </g>
    </g>
   </g>
  </g>
 </g>
 <defs>
  <clipPath id="pd513abbd5a">
   <rect height="266.112" width="357.12" x="43.78125" y="22.318125"/>
  </clipPath>
 </defs>
</svg>
